# xmcd CD database file
#
# Track frame offsets:
#	150
#	28160
#	53695
#	76060
#	104813
#	131223
#	156070
#	175258
#	209315
#	229790
#
# Disc length: 3344 seconds
#
# Revision: 1
# Processed by: cddbd v1.4PL0 Copyright (c) Steve Scherf et al.
# Submitted via: CDex 1.50beta8
#
DISCID=830d0e0a
DTITLE=Guido Basso - Guido Basso
DYEAR=1986
DGENRE=Jazz
TTITLE0=Jitterburg Waltz
TTITLE1=I Thought About You
TTITLE2=I've Never Been In Love Before
TTITLE3=Little Girl Blue
TTITLE4=Stable Mates
TTITLE5=Born To Be Blue
TTITLE6=Be My Love
TTITLE7=Peace
TTITLE8=Pecado
TTITLE9=The Very Thought Of You
EXTD=YEAR: 1986
EXTT0=
EXTT1=
EXTT2=
EXTT3=
EXTT4=
EXTT5=
EXTT6=
EXTT7=
EXTT8=
EXTT9=
PLAYORDER=
